<?xml version="1.0" encoding="UTF-8" standalone="no"?>
<svg
   width="300"
   height="300"
   version="1.1"
   viewBox="0 0 281.25333 281.2476"
   id="svg926"
   xmlns="http://www.w3.org/2000/svg"
   xmlns:svg="http://www.w3.org/2000/svg">
  <defs
     id="defs930" />
  <g
     transform="translate(-479.97859,-242.22729)"
     id="g924">
    <path
       d="m 620.72837,242.22799 c -1.67313,1.4972 -2.29382,4.11506 -3.43611,6.07349 -8.98463,19.32424 -13.89534,40.63744 -13.29014,61.98677 0.0287,2.77516 0.14727,5.55249 0.35209,8.32547 8.80691,14.95971 13.57136,32.34375 13.48158,49.69166 0.0642,0.19804 0.10018,0.40689 0.12291,0.61842 0.80898,1.66307 1.64758,3.309 2.52098,4.93214 0.97429,-1.75334 1.90209,-3.53172 2.78907,-5.32992 -0.5012,-17.77877 4.44844,-35.58464 13.52342,-50.89481 0.83837,-14.86378 -0.10854,-29.88869 -3.95025,-44.31367 -2.77926,-10.78793 -6.76837,-21.31862 -12.11342,-31.09184 z m -99.47518,41.06919 c -0.12437,2.2417 1.28827,4.53181 1.86543,6.7242 7.31193,20.01612 18.90975,38.55994 34.4352,53.2288 1.99726,1.95609 4.06059,3.84894 6.1826,5.67733 16.59333,4.31483 32.05253,12.9682 44.14559,25.19538 0.33862,0.17582 0.66958,0.42311 0.97674,0.71273 1.75706,0.60736 3.52295,1.18096 5.29766,1.71405 -0.547,-1.91489 -1.14382,-3.81462 -1.78291,-5.69971 -12.88673,-12.26385 -22.03298,-28.32969 -26.42995,-45.57824 -9.92067,-11.10803 -21.21838,-21.06751 -34.14085,-28.55369 -9.59371,-5.66304 -19.86133,-10.2888 -30.55106,-13.41984 z m 198.706,0.0305 c -0.0164,-0.007 -0.04,0 -0.0633,0 -0.0307,0.007 -0.0644,0.009 -0.0973,0.0164 -25.31728,7.44373 -48.10562,22.62653 -65.2825,42.61195 -4.35141,16.78662 -13.28032,32.43588 -25.58758,44.62621 -0.0973,0.18901 -0.22271,0.36481 -0.36062,0.53349 -0.61938,1.79605 -1.19811,3.60541 -1.72109,5.43018 1.89395,-0.56835 3.77326,-1.18322 5.63978,-1.83378 12.27617,-12.9702 28.3813,-22.09904 45.67852,-26.54126 10.89411,-9.45382 20.34269,-20.56891 27.77772,-32.95253 5.93231,-9.94629 10.9717,-20.57253 14.06531,-31.7476 0.0364,-0.10036 0.007,-0.13727 -0.0484,-0.14509 z m -64.82153,15.11091 -0.23318,0.21707 -0.0224,0.0218 c -19.39297,18.318 -30.39557,45.1808 -29.24773,71.74372 19.61142,-18.30537 30.60476,-45.34519 29.5032,-71.98217 z m -69.78869,0.28649 -0.009,0.31887 v 0.009 c -0.77036,26.60267 10.41498,53.42029 30.05676,71.45649 0.93051,-26.71466 -10.35796,-53.63708 -30.04565,-71.78346 z m 116.78537,48.82815 c -0.82762,-0.007 -1.65493,0 -2.48249,0.0145 -24.95813,0.50478 -49.76259,11.60989 -66.75248,30.08742 26.73359,0.79811 53.59675,-10.29748 71.71782,-30.0513 -0.82707,-0.0276 -1.65481,-0.0444 -2.48249,-0.05 z m -160.90132,0.6802 c -0.80845,-0.009 -1.6172,-0.009 -2.42602,0.007 -0.73714,0.18073 -2.23792,-0.16145 -2.5171,0.14364 18.30047,19.53198 45.31563,30.50833 71.93813,29.43164 -17.2091,-18.32162 -41.93321,-29.26184 -66.99501,-29.57797 z M 694.9307,366.2142 c -3.40649,0.0127 -6.81223,0.15527 -10.20854,0.41385 -14.94415,8.76591 -32.30617,13.50368 -49.61079,13.4632 -0.20271,0.0669 -0.41625,0.10437 -0.63314,0.12746 -1.69782,0.82764 -3.37613,1.69293 -5.02662,2.60824 1.57747,0.84918 3.17489,1.65901 4.78427,2.44438 0.16855,0.009 0.33656,0.0218 0.50187,0.0569 17.85206,-0.20268 35.75522,4.63585 51.11962,13.72332 14.37097,1.01137 28.89226,-0.16872 42.89037,-3.66432 11.22809,-2.83838 22.30513,-6.78797 32.39687,-12.5034 0.0967,-0.0451 0.10219,-0.092 0.0687,-0.13673 -0.009,-0.0146 -0.0287,-0.0287 -0.0451,-0.0451 -0.0249,-0.0195 -0.0536,-0.0369 -0.0816,-0.0556 -20.19274,-11.0152 -43.18287,-16.51693 -66.15634,-16.43273 z m -148.51573,0.058 c -0.731,-0.007 -1.46184,-0.007 -2.19275,0.007 -7.79791,0.07 -15.58971,0.79353 -23.266,2.18426 -14.10954,2.46552 -27.81476,7.22585 -40.45951,13.92729 -1.56947,0.81873 0.883,1.18418 1.35198,1.65618 22.79019,11.92187 48.94615,16.93729 74.55781,15.00433 15.07391,-8.84558 32.5894,-13.60013 50.06063,-13.4948 1.74079,-0.83986 3.6283,-1.6262 5.17491,-2.63678 -1.79465,-0.97519 -3.61236,-1.90624 -5.44891,-2.79739 -9.18105,0.39209 -18.44134,-0.98785 -27.28896,-3.43345 -8.19986,-2.36038 -16.18142,-5.72195 -23.56776,-10.06587 -2.96939,-0.20928 -5.94564,-0.32591 -8.92224,-0.34591 z m 87.3414,21.52816 c -0.42507,0.007 -0.70794,0.0662 -0.60689,0.28644 18.32582,19.35675 45.17308,30.39813 71.76224,29.24558 -17.5464,-18.80034 -43.25507,-29.77671 -68.96486,-29.52922 -0.37934,0.14564 -1.48278,-0.009 -2.19125,-0.007 z m -29.03482,0.19389 c -25.59683,0.1151 -50.91598,11.29413 -68.228,30.07841 26.80578,0.87843 53.59118,-10.36431 71.81224,-30.02962 -1.19409,-0.0416 -2.38882,-0.0647 -3.58349,-0.0487 z m 22.21257,1.1551 0.007,0.0671 c 0.55482,1.86414 1.15176,3.71491 1.78753,5.5514 12.93209,12.24851 22.03113,28.32789 26.46142,45.58185 13.15667,15.16673 29.52542,27.54024 47.9168,35.68761 5.49222,2.37845 11.11034,4.8082 16.86825,6.29874 -0.28129,-3.06527 -1.93411,-5.96311 -2.82851,-8.91476 -8.17465,-21.9238 -22.11814,-41.54791 -39.87078,-56.73524 -16.82069,-4.41582 -32.47835,-13.40158 -44.72876,-25.73191 -1.85857,-0.64217 -3.72937,-1.24697 -5.6135,-1.80518 z m -12.61848,0.0551 c -1.88874,0.5588 -3.76454,1.15962 -5.62571,1.80129 -12.30725,12.90607 -28.40534,22.03942 -45.68774,26.46898 -8.69768,7.54867 -16.47097,16.1614 -23.03457,25.62895 -8.23354,11.71991 -14.55814,24.77629 -18.76163,38.45698 -0.53086,1.6886 1.46181,0.21242 2.1272,0.21464 24.55823,-7.68815 46.61158,-22.65002 63.35894,-42.14046 3.68717,-14.13756 10.59993,-27.46798 20.02797,-38.59607 2.00223,-1.95555 3.67309,-4.41313 5.78789,-6.27962 0.63894,-1.83415 1.42402,-3.73604 1.80525,-5.55448 z m 6.28833,2.59343 -0.0425,0.052 c -0.94002,1.73644 -1.8392,3.49417 -2.7002,5.2696 0.51434,17.76593 -4.4279,35.52321 -13.48159,50.82795 -1.42745,20.0378 1.39633,40.37368 8.64342,59.15055 2.20164,5.56531 4.45548,11.25582 7.47282,16.38106 1.96873,-2.36635 2.8498,-5.58373 4.30458,-8.30326 9.72777,-21.29333 13.74429,-45.04531 11.92422,-68.34747 -8.42847,-14.40313 -13.14722,-31.01417 -13.31716,-47.69368 0.05,-0.54004 0.0249,-1.18216 0.009,-1.84769 -0.89587,-1.85095 -1.83104,-3.68202 -2.81147,-5.48818 z m 5.17102,3.34855 -0.009,0.29264 c -0.73764,26.67131 10.44645,53.3968 30.05491,71.46009 0.84784,-26.72911 -10.35649,-53.60817 -30.0438,-71.75275 z m -10.23782,0.0569 -0.21769,0.20314 c -19.37075,18.30719 -30.3826,45.21333 -29.27178,71.77624 19.50958,-18.29632 30.59364,-45.32171 29.49024,-71.97856 z"
       id="path892"
       style="stroke-width:1.82879" />
  </g>
</svg>
