<?xml version="1.0" encoding="UTF-8" standalone="no"?>
<svg
   xmlns:dc="http://purl.org/dc/elements/1.1/"
   xmlns:cc="http://creativecommons.org/ns#"
   xmlns:rdf="http://www.w3.org/1999/02/22-rdf-syntax-ns#"
   xmlns:svg="http://www.w3.org/2000/svg"
   xmlns="http://www.w3.org/2000/svg"
   xmlns:sodipodi="http://sodipodi.sourceforge.net/DTD/sodipodi-0.dtd"
   xmlns:inkscape="http://www.inkscape.org/namespaces/inkscape"
   width="300"
   height="300"
   viewBox="0 0 79.374998 79.375002"
   version="1.1"
   id="svg2143"
   inkscape:version="1.0.1 (3bc2e813f5, 2020-09-07)"
   sodipodi:docname="binary-drawing.svg">
  <defs
     id="defs2137">
    <rect
       x="0"
       y="0"
       width="79.563988"
       height="79.186012"
       id="rect2720" />
  </defs>
  <sodipodi:namedview
     id="base"
     pagecolor="#ffffff"
     bordercolor="#666666"
     borderopacity="1.0"
     inkscape:pageopacity="0.0"
     inkscape:pageshadow="2"
     inkscape:zoom="2"
     inkscape:cx="87.481654"
     inkscape:cy="90.109369"
     inkscape:document-units="mm"
     inkscape:current-layer="layer1"
     inkscape:document-rotation="0"
     showgrid="false"
     units="px"
     inkscape:window-width="1920"
     inkscape:window-height="1001"
     inkscape:window-x="-9"
     inkscape:window-y="-9"
     inkscape:window-maximized="1" />
  <metadata
     id="metadata2140">
    <rdf:RDF>
      <cc:Work
         rdf:about="">
        <dc:format>image/svg+xml</dc:format>
        <dc:type
           rdf:resource="http://purl.org/dc/dcmitype/StillImage" />
        <dc:title />
      </cc:Work>
    </rdf:RDF>
  </metadata>
  <g
     inkscape:label="Layer 1"
     inkscape:groupmode="layer"
     id="layer1">
    <path
       style="fill:#000000;stroke:#000000;stroke-width:0.0264583;stroke-linecap:butt;stroke-linejoin:miter;stroke-miterlimit:4;stroke-dasharray:none;stroke-opacity:1;fill-opacity:1"
       d="m 38.779,0.01 h 3.664 v 19.418 l 3.691,1.46e-4 V 21.559 H 35.088 v -2.131 h 3.691 L 38.778772,6.4605653 35.088,6.461 V 4.329 h 1.845187 L 36.933,2.172 l 1.845921,2.292e-4 z"
       id="path895"
       sodipodi:nodetypes="ccccccccccccccc" />
    <path
       style="fill:#000000;fill-opacity:1;stroke:#000000;stroke-width:0.0264583;stroke-linecap:butt;stroke-linejoin:miter;stroke-miterlimit:4;stroke-dasharray:none;stroke-opacity:1"
       d="M 5.5514992,28.913229 H 9.215499 v 19.418 l 3.691,1.46e-4 v 2.130854 H 1.8604992 v -2.131 h 3.691 l -2.28e-4,-12.967435 -3.690772,4.35e-4 v -2.132 h 1.845187 l -1.87e-4,-2.157 1.845921,2.29e-4 z"
       id="path897"
       sodipodi:nodetypes="ccccccccccccccc" />
    <path
       style="fill:#000000;fill-opacity:1;stroke:#000000;stroke-width:0.0264583;stroke-linecap:butt;stroke-linejoin:miter;stroke-miterlimit:4;stroke-dasharray:none;stroke-opacity:1"
       d="m 38.778603,28.913229 h 3.664 v 19.418 l 3.691,1.46e-4 v 2.130854 h -11.046 v -2.131 h 3.691 l -2.28e-4,-12.967435 -3.690772,4.35e-4 v -2.132 h 1.845187 l -1.87e-4,-2.157 1.845921,2.29e-4 z"
       id="path899"
       sodipodi:nodetypes="ccccccccccccccc" />
    <path
       style="fill:#000000;fill-opacity:1;stroke:#000000;stroke-width:0.0264583;stroke-linecap:butt;stroke-linejoin:miter;stroke-miterlimit:4;stroke-dasharray:none;stroke-opacity:1"
       d="m 55.386892,28.913229 h 3.664 v 19.418 l 3.691,1.46e-4 v 2.130854 h -11.046 v -2.131 h 3.691 l -2.28e-4,-12.967435 -3.690772,4.35e-4 v -2.132 h 1.845187 l -1.87e-4,-2.157 1.845921,2.29e-4 z"
       id="path901"
       sodipodi:nodetypes="ccccccccccccccc" />
    <path
       style="fill:#000000;fill-opacity:1;stroke:#000000;stroke-width:0.0264583;stroke-linecap:butt;stroke-linejoin:miter;stroke-miterlimit:4;stroke-dasharray:none;stroke-opacity:1"
       d="m 22.164414,57.803952 h 3.664 v 19.418 l 3.691,1.46e-4 v 2.130854 h -11.046 v -2.131 h 3.691 l -2.28e-4,-12.967435 -3.690772,4.35e-4 v -2.132 h 1.845187 l -1.87e-4,-2.157 1.845921,2.29e-4 z"
       id="path903"
       sodipodi:nodetypes="ccccccccccccccc" />
    <path
       style="fill:#000000;fill-opacity:1;stroke:#000000;stroke-width:0.0264583;stroke-linecap:butt;stroke-linejoin:miter;stroke-miterlimit:4;stroke-dasharray:none;stroke-opacity:1"
       d="m 55.398069,57.803952 h 3.664 v 19.418 l 3.691,1.46e-4 v 2.130854 h -11.046 v -2.131 h 3.691 l -2.28e-4,-12.967435 -3.690772,4.35e-4 v -2.132 h 1.845187 l -1.87e-4,-2.157 1.845921,2.29e-4 z"
       id="path905"
       sodipodi:nodetypes="ccccccccccccccc" />
    <path
       style="fill:#000000;fill-opacity:1;stroke:#070000;stroke-width:0.0264583;stroke-linecap:butt;stroke-linejoin:miter;stroke-miterlimit:4;stroke-dasharray:none;stroke-opacity:1"
       d="m 55.388763,8.6440119 h 1.82 v 4.2880001 h -1.82 z"
       id="path911"
       sodipodi:nodetypes="ccccc" />
    <path
       style="fill:#000000;fill-opacity:1;stroke:#000000;stroke-width:0.00234908;stroke-linejoin:round;stroke-miterlimit:4;stroke-dasharray:none;stroke-opacity:1"
       d="m 53.540758,20.493752 -5.31e-4,-1.079662 -0.928673,4.24e-4 -0.928677,4.25e-4 -5.31e-4,-1.079662 -5.33e-4,-1.079661 -0.91692,3.98e-4 -0.916918,3.99e-4 -0.0029,-6.466236 -0.0029,-6.4662367 0.928673,-4.248e-4 0.928675,-4.249e-4 -5.31e-4,-1.0796618 -5.32e-4,-1.079662 0.928673,-4.142e-4 0.928674,-4.143e-4 -5.31e-4,-1.079662 -5.33e-4,-1.07966176 2.753644,-0.00122 2.753644,-0.00122 -0.0082,1.07379796 -0.0082,1.0737981 0.922565,0.00573 0.922565,0.00573 0.0066,1.0852549 0.0066,1.0852546 0.922801,0.00573 0.922799,0.00573 0.0029,6.4542269 0.0029,6.454229 -0.928674,4.25e-4 -0.928676,4.25e-4 5.33e-4,1.079661 5.32e-4,1.079662 -0.928676,4.26e-4 -0.928674,4.24e-4 5.31e-4,1.079662 5.33e-4,1.079663 -2.75076,0.0012 -2.750756,0.0012 z m 3.713771,-2.090564 -5.33e-4,-1.079662 0.924857,-3.97e-4 0.92486,-4e-4 0.01138,-6.517478 c 0.0062,-3.584613 0.006,-6.5261057 -5.32e-4,-6.5366498 -0.0065,-0.010546 -0.429158,-0.018987 -0.939168,-0.018759 l -0.927286,4.248e-4 -5.31e-4,-1.0796619 -5.32e-4,-1.0796619 -0.952186,4.249e-4 -0.952188,4.249e-4 5.33e-4,1.0796617 5.32e-4,1.0796621 -0.924774,3.984e-4 -0.924778,3.983e-4 -0.01347,4.8408824 c -0.0074,2.6624851 -0.01313,5.6039811 -0.01273,6.5366571 l 7.98e-4,1.695773 0.928674,-4.26e-4 0.928676,-4.24e-4 5.32e-4,1.079662 5.31e-4,1.079662 0.963944,-4.24e-4 0.963938,-4.25e-4 z"
       id="path917" />
    <path
       style="fill:#000000;fill-opacity:1;stroke:#070000;stroke-width:0.0264583;stroke-linecap:butt;stroke-linejoin:miter;stroke-miterlimit:4;stroke-dasharray:none;stroke-opacity:1"
       d="m 22.146868,37.559973 h 1.82 v 4.288 h -1.82 z"
       id="path961"
       sodipodi:nodetypes="ccccc" />
    <path
       style="fill:#000000;fill-opacity:1;stroke:#000000;stroke-width:0.00234908;stroke-linejoin:round;stroke-miterlimit:4;stroke-dasharray:none;stroke-opacity:1"
       d="m 20.298863,49.409713 -5.31e-4,-1.079662 -0.928673,4.24e-4 -0.928677,4.25e-4 -5.31e-4,-1.079662 -5.33e-4,-1.079661 -0.91692,3.98e-4 -0.916918,3.99e-4 -0.0029,-6.466236 -0.0029,-6.466237 0.928673,-4.25e-4 0.928675,-4.25e-4 -5.31e-4,-1.079662 -5.32e-4,-1.079662 0.928673,-4.14e-4 0.928674,-4.14e-4 -5.31e-4,-1.079662 -5.33e-4,-1.079662 2.753644,-0.0012 2.753644,-0.0012 -0.0082,1.073798 -0.0082,1.073798 0.922565,0.0057 0.922565,0.0057 0.0066,1.085255 0.0066,1.085255 0.922801,0.0057 0.922799,0.0057 0.0029,6.454227 0.0029,6.454229 -0.928674,4.25e-4 -0.928676,4.25e-4 5.33e-4,1.079661 5.32e-4,1.079662 -0.928676,4.26e-4 -0.928674,4.24e-4 5.31e-4,1.079662 5.33e-4,1.079663 -2.75076,0.0012 -2.750756,0.0012 z m 3.713771,-2.090564 -5.33e-4,-1.079662 0.924857,-3.97e-4 0.92486,-4e-4 0.01138,-6.517478 c 0.0062,-3.584613 0.006,-6.526106 -5.32e-4,-6.53665 -0.0065,-0.01055 -0.429158,-0.01899 -0.939168,-0.01876 l -0.927286,4.25e-4 -5.31e-4,-1.079662 -5.32e-4,-1.079662 -0.952186,4.25e-4 -0.952188,4.25e-4 5.33e-4,1.079661 5.32e-4,1.079662 -0.924774,3.99e-4 -0.924778,3.98e-4 -0.01347,4.840883 c -0.0074,2.662485 -0.01313,5.603981 -0.01273,6.536657 l 7.98e-4,1.695773 0.928674,-4.26e-4 0.928676,-4.24e-4 5.32e-4,1.079662 5.31e-4,1.079662 0.963944,-4.24e-4 0.963938,-4.25e-4 z"
       id="path963" />
    <path
       style="fill:#000000;fill-opacity:1;stroke:#070000;stroke-width:0.0264583;stroke-linecap:butt;stroke-linejoin:miter;stroke-miterlimit:4;stroke-dasharray:none;stroke-opacity:1"
       d="m 72.008128,37.560448 h 1.82 v 4.288 h -1.82 z"
       id="path965"
       sodipodi:nodetypes="ccccc" />
    <path
       style="fill:#000000;fill-opacity:1;stroke:#000000;stroke-width:0.00234908;stroke-linejoin:round;stroke-miterlimit:4;stroke-dasharray:none;stroke-opacity:1"
       d="m 70.160123,49.410188 -5.31e-4,-1.079662 -0.928673,4.24e-4 -0.928677,4.25e-4 -5.31e-4,-1.079662 -5.33e-4,-1.079661 -0.91692,3.98e-4 -0.916918,3.99e-4 -0.0029,-6.466236 -0.0029,-6.466237 0.928673,-4.25e-4 0.928675,-4.25e-4 -5.31e-4,-1.079662 -5.32e-4,-1.079662 0.928673,-4.14e-4 0.928674,-4.14e-4 -5.31e-4,-1.079662 -5.33e-4,-1.079662 2.753644,-0.0012 2.753644,-0.0012 -0.0082,1.073798 -0.0082,1.073798 0.922565,0.0057 0.922565,0.0057 0.0066,1.085255 0.0066,1.085255 0.922801,0.0057 0.922799,0.0057 0.0029,6.454227 0.0029,6.454229 -0.928674,4.25e-4 -0.928676,4.25e-4 5.33e-4,1.079661 5.32e-4,1.079662 -0.928676,4.26e-4 -0.928674,4.24e-4 5.31e-4,1.079662 5.33e-4,1.079663 -2.75076,0.0012 -2.750756,0.0012 z m 3.713771,-2.090564 -5.33e-4,-1.079662 0.924857,-3.97e-4 0.92486,-4e-4 0.01138,-6.517478 c 0.0062,-3.584613 0.006,-6.526106 -5.32e-4,-6.53665 -0.0065,-0.01055 -0.429158,-0.01899 -0.939168,-0.01876 l -0.927286,4.25e-4 -5.31e-4,-1.079662 -5.32e-4,-1.079662 -0.952186,4.25e-4 -0.952188,4.25e-4 5.33e-4,1.079661 5.32e-4,1.079662 -0.924774,3.99e-4 -0.924778,3.98e-4 -0.01347,4.840883 c -0.0074,2.662485 -0.01313,5.603981 -0.01273,6.536657 l 7.98e-4,1.695773 0.928674,-4.26e-4 0.928676,-4.24e-4 5.32e-4,1.079662 5.31e-4,1.079662 0.963944,-4.24e-4 0.963938,-4.25e-4 z"
       id="path967" />
    <path
       style="fill:#000000;fill-opacity:1;stroke:#070000;stroke-width:0.0264583;stroke-linecap:butt;stroke-linejoin:miter;stroke-miterlimit:4;stroke-dasharray:none;stroke-opacity:1"
       d="m 38.78923,66.451171 h 1.82 v 4.288 h -1.82 z"
       id="path969"
       sodipodi:nodetypes="ccccc" />
    <path
       style="fill:#000000;fill-opacity:1;stroke:#000000;stroke-width:0.00234908;stroke-linejoin:round;stroke-miterlimit:4;stroke-dasharray:none;stroke-opacity:1"
       d="m 36.941225,78.300911 -5.31e-4,-1.079662 -0.928673,4.24e-4 -0.928677,4.25e-4 -5.31e-4,-1.079662 -5.33e-4,-1.079661 -0.91692,3.98e-4 -0.916918,3.99e-4 -0.0029,-6.466236 -0.0029,-6.466237 0.928673,-4.25e-4 0.928675,-4.25e-4 -5.31e-4,-1.079662 -5.32e-4,-1.079662 0.928673,-4.14e-4 0.928674,-4.14e-4 -5.31e-4,-1.079662 -5.33e-4,-1.079662 2.753644,-0.0012 2.753644,-0.0012 -0.0082,1.073798 -0.0082,1.073798 0.922565,0.0057 0.922565,0.0057 0.0066,1.085255 0.0066,1.085255 0.922801,0.0057 0.922799,0.0057 0.0029,6.454227 0.0029,6.454229 -0.928674,4.25e-4 -0.928676,4.25e-4 5.33e-4,1.079661 5.32e-4,1.079662 -0.928676,4.26e-4 -0.928674,4.24e-4 5.31e-4,1.079662 5.33e-4,1.079663 -2.75076,0.0012 -2.750756,0.0012 z m 3.713771,-2.090564 -5.33e-4,-1.079662 0.924857,-3.97e-4 0.92486,-4e-4 0.01138,-6.517478 c 0.0062,-3.584613 0.006,-6.526106 -5.32e-4,-6.53665 -0.0065,-0.01055 -0.429158,-0.01899 -0.939168,-0.01876 l -0.927286,4.25e-4 -5.31e-4,-1.079662 -5.32e-4,-1.079662 -0.952186,4.25e-4 -0.952188,4.25e-4 5.33e-4,1.079661 5.32e-4,1.079662 -0.924774,3.99e-4 -0.924778,3.98e-4 -0.01347,4.840883 c -0.0074,2.662485 -0.01313,5.603981 -0.01273,6.536657 l 7.98e-4,1.695773 0.928674,-4.26e-4 0.928676,-4.24e-4 5.32e-4,1.079662 5.31e-4,1.079662 0.963944,-4.24e-4 0.963938,-4.25e-4 z"
       id="path971" />
  </g>
</svg>
