<svg xmlns="http://www.w3.org/2000/svg" version="1.1" width="100%" viewBox="0 0 2463 360" preserveAspectRatio="none" fill="#12213F"><g clip-path="url(#clip0)">
													<path d="M-0.628906 314.356L76.3711 238.263L153.371 314.356L230.371 238.263L307.371 314.356L384.371 238.263L461.371 314.356L538.371 238.263L615.371 314.356L692.371 238.263L769.371 314.356L846.371 238.263L923.371 314.356L1000.37 238.263L1077.37 314.356L1154.37 238.263L1231.37 314.356L1308.37 238.263L1385.37 314.356L1462.37 238.263L1539.37 314.356L1616.37 238.263L1693.37 314.356L1770.37 238.263L1847.37 314.356L1924.37 238.263L2001.37 314.356L2078.37 238.263L2155.37 314.356L2232.37 238.263L2309.37 314.356L2386.37 238.263L2463.37 314.356V360.263H1847.37H1231.37H615.371H-0.628906V314.356Z" fill="#12213F"/>
													<path d="M222.668 231.224L153.5 162.001L84.332 231.224L153.5 300.446L222.668 231.224Z" fill="#12213F" fill-opacity="0.5"/>
													<path d="M1454.67 231.224L1385.5 162.001L1316.33 231.224L1385.5 300.446L1454.67 231.224Z" fill="#12213F" fill-opacity="0.5"/>
													<path d="M838.668 231.224L769.5 162.001L700.332 231.224L769.5 300.446L838.668 231.224Z" fill="#12213F" fill-opacity="0.5"/>
													<path d="M2070.67 231.224L2001.5 162.001L1932.33 231.224L2001.5 300.446L2070.67 231.224Z" fill="#12213F" fill-opacity="0.5"/>
													<path d="M145.669 156.223L76.5003 87.001L7.33203 156.223L76.5003 225.446L145.669 156.223Z" fill="#12213F"/>
													<path d="M1377.67 156.223L1308.5 87.001L1239.33 156.223L1308.5 225.446L1377.67 156.223Z" fill="#12213F"/>
													<path d="M761.669 156.223L692.5 87.001L623.332 156.223L692.5 225.446L761.669 156.223Z" fill="#12213F"/>
													<path d="M1993.67 156.223L1924.5 87.001L1855.33 156.223L1924.5 225.446L1993.67 156.223Z" fill="#12213F"/>
													<path d="M684.669 231.223L615.5 162.001L546.332 231.223L615.5 300.446L684.669 231.223Z" fill="#12213F"/>
													<path d="M1916.67 231.223L1847.5 162.001L1778.33 231.223L1847.5 300.446L1916.67 231.223Z" fill="#12213F"/>
													<path d="M184.614 96.8333L152.807 65.001L121 96.8333L152.807 128.665L184.614 96.8333Z" fill="#12213F"/>
													<path d="M1416.61 96.8333L1384.81 65.001L1353 96.8333L1384.81 128.665L1416.61 96.8333Z" fill="#12213F"/>
													<path d="M1263.61 96.8333L1231.81 65.001L1200 96.8333L1231.81 128.665L1263.61 96.8333Z" fill="#12213F"/>
													<path d="M800.614 96.8333L768.807 65.001L737 96.8333L768.807 128.665L800.614 96.8333Z" fill="#12213F"/>
													<path d="M2032.61 96.8333L2000.81 65.001L1969 96.8333L2000.81 128.665L2032.61 96.8333Z" fill="#12213F"/>
													<path d="M647.614 96.8333L615.807 65.001L584 96.8333L615.807 128.665L647.614 96.8333Z" fill="#12213F"/>
													<path d="M1879.61 96.8333L1847.81 65.001L1816 96.8333L1847.81 128.665L1879.61 96.8333Z" fill="#12213F"/>
													<path d="M338.614 96.8333L306.807 65.001L275 96.8333L306.807 128.665L338.614 96.8333Z" fill="#12213F"/>
													<path d="M1570.61 96.8333L1538.81 65.001L1507 96.8333L1538.81 128.665L1570.61 96.8333Z" fill="#12213F"/>
													<path d="M954.614 96.8333L922.807 65.001L891 96.8333L922.807 128.665L954.614 96.8333Z" fill="#12213F"/>
													<path d="M2186.61 96.8333L2154.81 65.001L2123 96.8333L2154.81 128.665L2186.61 96.8333Z" fill="#12213F"/>
													<path d="M492.614 96.8333L460.807 65.001L429 96.8333L460.807 128.665L492.614 96.8333Z" fill="#12213F"/>
													<path d="M1724.61 96.8333L1692.81 65.001L1661 96.8333L1692.81 128.665L1724.61 96.8333Z" fill="#12213F"/>
													<path d="M1108.61 96.8333L1076.81 65.001L1045 96.8333L1076.81 128.665L1108.61 96.8333Z" fill="#12213F"/>
													<path d="M2340.61 96.8333L2308.81 65.001L2277 96.8333L2308.81 128.665L2340.61 96.8333Z" fill="#12213F"/>
													<path d="M213.785 59.6856L196.114 42.001L178.443 59.6856L196.114 77.3702L213.785 59.6856Z" fill="#12213F" fill-opacity="0.5"/>
													<path d="M1445.79 59.6856L1428.11 42.001L1410.44 59.6856L1428.11 77.3702L1445.79 59.6856Z" fill="#12213F" fill-opacity="0.5"/>
													<path d="M829.785 59.6856L812.114 42.001L794.443 59.6856L812.114 77.3702L829.785 59.6856Z" fill="#12213F" fill-opacity="0.5"/>
													<path d="M2061.79 59.6856L2044.11 42.001L2026.44 59.6856L2044.11 77.3702L2061.79 59.6856Z" fill="#12213F" fill-opacity="0.5"/>
													<path d="M367.785 59.6856L350.114 42.001L332.443 59.6856L350.114 77.3702L367.785 59.6856Z" fill="#12213F" fill-opacity="0.5"/>
													<path d="M1599.79 59.6856L1582.11 42.001L1564.44 59.6856L1582.11 77.3702L1599.79 59.6856Z" fill="#12213F" fill-opacity="0.5"/>
													<path d="M983.785 59.6856L966.114 42.001L948.443 59.6856L966.114 77.3702L983.785 59.6856Z" fill="#12213F" fill-opacity="0.5"/>
													<path d="M2215.79 59.6856L2198.11 42.001L2180.44 59.6856L2198.11 77.3702L2215.79 59.6856Z" fill="#12213F" fill-opacity="0.5"/>
													<path d="M521.785 59.6856L504.114 42.001L486.443 59.6856L504.114 77.3702L521.785 59.6856Z" fill="#12213F" fill-opacity="0.5"/>
													<path d="M1753.79 59.6856L1736.11 42.001L1718.44 59.6856L1736.11 77.3702L1753.79 59.6856Z" fill="#12213F" fill-opacity="0.5"/>
													<path d="M1137.79 59.6856L1120.11 42.001L1102.44 59.6856L1120.11 77.3702L1137.79 59.6856Z" fill="#12213F" fill-opacity="0.5"/>
													<path d="M2369.79 59.6856L2352.11 42.001L2334.44 59.6856L2352.11 77.3702L2369.79 59.6856Z" fill="#12213F" fill-opacity="0.5"/>
													<path d="M124.094 59.6856L106.423 42.001L88.752 59.6856L106.423 77.3702L124.094 59.6856Z" fill="#12213F"/>
													<path d="M1356.09 59.6856L1338.42 42.001L1320.75 59.6856L1338.42 77.3702L1356.09 59.6856Z" fill="#12213F"/>
													<path d="M740.094 59.6856L722.423 42.001L704.752 59.6856L722.423 77.3702L740.094 59.6856Z" fill="#12213F"/>
													<path d="M1972.09 59.6856L1954.42 42.001L1936.75 59.6856L1954.42 77.3702L1972.09 59.6856Z" fill="#12213F"/>
													<path d="M278.094 59.6856L260.423 42.001L242.752 59.6856L260.423 77.3702L278.094 59.6856Z" fill="#12213F"/>
													<path d="M1510.09 59.6856L1492.42 42.001L1474.75 59.6856L1492.42 77.3702L1510.09 59.6856Z" fill="#12213F"/>
													<path d="M894.094 59.6856L876.423 42.001L858.752 59.6856L876.423 77.3702L894.094 59.6856Z" fill="#12213F"/>
													<path d="M2126.09 59.6856L2108.42 42.001L2090.75 59.6856L2108.42 77.3702L2126.09 59.6856Z" fill="#12213F"/>
													<path d="M432.094 59.6856L414.423 42.001L396.752 59.6856L414.423 77.3702L432.094 59.6856Z" fill="#12213F"/>
													<path d="M1664.09 59.6856L1646.42 42.001L1628.75 59.6856L1646.42 77.3702L1664.09 59.6856Z" fill="#12213F"/>
													<path d="M1048.09 59.6856L1030.42 42.001L1012.75 59.6856L1030.42 77.3702L1048.09 59.6856Z" fill="#12213F"/>
													<path d="M2280.09 59.6856L2262.42 42.001L2244.75 59.6856L2262.42 77.3702L2280.09 59.6856Z" fill="#12213F"/>
													<path d="M170.401 18.6856L152.73 1.00098L135.059 18.6856L152.73 36.3702L170.401 18.6856Z" fill="#12213F"/>
													<path d="M1402.4 18.6856L1384.73 1.00098L1367.06 18.6856L1384.73 36.3702L1402.4 18.6856Z" fill="#12213F"/>
													<path d="M1249.4 18.6856L1231.73 1.00098L1214.06 18.6856L1231.73 36.3702L1249.4 18.6856Z" fill="#12213F"/>
													<path d="M786.401 18.6856L768.73 1.00098L751.059 18.6856L768.73 36.3702L786.401 18.6856Z" fill="#12213F"/>
													<path d="M2018.4 18.6856L2000.73 1.00098L1983.06 18.6856L2000.73 36.3702L2018.4 18.6856Z" fill="#12213F"/>
													<path d="M633.401 18.6856L615.73 1.00098L598.059 18.6856L615.73 36.3702L633.401 18.6856Z" fill="#12213F"/>
													<path d="M1865.4 18.6856L1847.73 1.00098L1830.06 18.6856L1847.73 36.3702L1865.4 18.6856Z" fill="#12213F"/>
													<path d="M324.401 18.6856L306.73 1.00098L289.059 18.6856L306.73 36.3702L324.401 18.6856Z" fill="#12213F"/>
													<path d="M1556.4 18.6856L1538.73 1.00098L1521.06 18.6856L1538.73 36.3702L1556.4 18.6856Z" fill="#12213F"/>
													<path d="M940.401 18.6856L922.73 1.00098L905.059 18.6856L922.73 36.3702L940.401 18.6856Z" fill="#12213F"/>
													<path d="M2172.4 18.6856L2154.73 1.00098L2137.06 18.6856L2154.73 36.3702L2172.4 18.6856Z" fill="#12213F"/>
													<path d="M478.401 18.6856L460.73 1.00098L443.059 18.6856L460.73 36.3702L478.401 18.6856Z" fill="#12213F"/>
													<path d="M1710.4 18.6856L1692.73 1.00098L1675.06 18.6856L1692.73 36.3702L1710.4 18.6856Z" fill="#12213F"/>
													<path d="M1094.4 18.6856L1076.73 1.00098L1059.06 18.6856L1076.73 36.3702L1094.4 18.6856Z" fill="#12213F"/>
													<path d="M2326.4 18.6856L2308.73 1.00098L2291.06 18.6856L2308.73 36.3702L2326.4 18.6856Z" fill="#12213F"/>
													<path d="M2431.57 96.8333L2463.38 128.665V65.001L2431.57 96.8333Z" fill="#12213F"/>
													<path d="M586.662 59.6856L568.991 42.001L551.32 59.6856L568.991 77.3702L586.662 59.6856Z" fill="#12213F"/>
													<path d="M1818.66 59.6856L1800.99 42.001L1783.32 59.6856L1800.99 77.3702L1818.66 59.6856Z" fill="#12213F"/>
													<path d="M1202.66 59.6856L1184.99 42.001L1167.32 59.6856L1184.99 77.3702L1202.66 59.6856Z" fill="#12213F"/>
													<path d="M2434.66 59.6856L2416.99 42.001L2399.32 59.6856L2416.99 77.3702L2434.66 59.6856Z" fill="#12213F"/>
													<path d="M2445.63 18.6856L2463.3 36.3702V1.00098L2445.63 18.6856Z" fill="#12213F"/>
													<path d="M31.0944 96.7678L-0.712885 64.9355L-0.712891 128.6L31.0944 96.7678Z" fill="#12213F"/>
													<path d="M28.0078 59.9795L45.6785 77.6641L63.3492 59.9795L45.6785 42.2949L28.0078 59.9795Z" fill="#12213F" fill-opacity="0.5"/>
													<path d="M1260.01 59.9795L1277.68 77.6641L1295.35 59.9795L1277.68 42.2949L1260.01 59.9795Z" fill="#12213F" fill-opacity="0.5"/>
													<path d="M644.008 59.9795L661.679 77.6641L679.349 59.9795L661.679 42.2949L644.008 59.9795Z" fill="#12213F" fill-opacity="0.5"/>
													<path d="M1876.01 59.9795L1893.68 77.6641L1911.35 59.9795L1893.68 42.2949L1876.01 59.9795Z" fill="#12213F" fill-opacity="0.5"/>
													<path d="M16.9618 18.3154L-0.708981 0.630859L-0.708984 36L16.9618 18.3154Z" fill="#12213F"/>
													<path d="M299.668 155.223L230.5 86.001L161.332 155.223L230.5 224.446L299.668 155.223Z" fill="#12213F"/>
													<path d="M1531.67 155.223L1462.5 86.001L1393.33 155.223L1462.5 224.446L1531.67 155.223Z" fill="#12213F"/>
													<path d="M915.668 155.223L846.5 86.001L777.332 155.223L846.5 224.446L915.668 155.223Z" fill="#12213F"/>
													<path d="M2147.67 155.223L2078.5 86.001L2009.33 155.223L2078.5 224.446L2147.67 155.223Z" fill="#12213F"/>
													<path d="M453.668 154.223L384.5 85.001L315.332 154.223L384.5 223.446L453.668 154.223Z" fill="#12213F"/>
													<path d="M1685.67 154.223L1616.5 85.001L1547.33 154.223L1616.5 223.446L1685.67 154.223Z" fill="#12213F"/>
													<path d="M1069.67 154.223L1000.5 85.001L931.332 154.223L1000.5 223.446L1069.67 154.223Z" fill="#12213F"/>
													<path d="M2301.67 154.223L2232.5 85.001L2163.33 154.223L2232.5 223.446L2301.67 154.223Z" fill="#12213F"/>
													<path d="M607.668 153.223L538.5 84.001L469.332 153.223L538.5 222.446L607.668 153.223Z" fill="#12213F"/>
													<path d="M1839.67 153.223L1770.5 84.001L1701.33 153.223L1770.5 222.446L1839.67 153.223Z" fill="#12213F"/>
													<path d="M1223.67 153.223L1154.5 84.001L1085.33 153.223L1154.5 222.446L1223.67 153.223Z" fill="#12213F"/>
													<path d="M2455.67 153.223L2386.5 84.001L2317.33 153.223L2386.5 222.446L2455.67 153.223Z" fill="#12213F"/>
													<path d="M68.5374 231.223L-0.630859 162.001V300.446L68.5374 231.223Z" fill="#12213F"/>
													<path d="M376.568 231.224L307.4 162.001L238.232 231.224L307.4 300.446L376.568 231.224Z" fill="#12213F"/>
													<path d="M1608.57 231.224L1539.4 162.001L1470.23 231.224L1539.4 300.446L1608.57 231.224Z" fill="#12213F"/>
													<path d="M1300.57 231.224L1231.4 162.001L1162.23 231.224L1231.4 300.446L1300.57 231.224Z" fill="#12213F"/>
													<path d="M992.568 231.224L923.4 162.001L854.232 231.224L923.4 300.446L992.568 231.224Z" fill="#12213F"/>
													<path d="M2224.57 231.224L2155.4 162.001L2086.23 231.224L2155.4 300.446L2224.57 231.224Z" fill="#12213F"/>
													<path d="M530.469 231.224L461.301 162.001L392.133 231.224L461.301 300.446L530.469 231.224Z" fill="#12213F" fill-opacity="0.5"/>
													<path d="M1762.47 231.224L1693.3 162.001L1624.13 231.224L1693.3 300.446L1762.47 231.224Z" fill="#12213F" fill-opacity="0.5"/>
													<path d="M1146.47 231.224L1077.3 162.001L1008.13 231.224L1077.3 300.446L1146.47 231.224Z" fill="#12213F" fill-opacity="0.5"/>
													<path d="M2378.47 231.224L2309.3 162.001L2240.13 231.224L2309.3 300.446L2378.47 231.224Z" fill="#12213F" fill-opacity="0.5"/>
													<path d="M2394.2 231.223L2463.37 300.446V162.001L2394.2 231.223Z" fill="#12213F"/>
													</g>
													<defs>
													<clipPath id="clip0">
													<rect width="100%" height="360" fill="white"/>
													</clipPath>
													</defs></svg>