<?xml version="1.0" encoding="UTF-8" standalone="no"?>
<svg
   xmlns:dc="http://purl.org/dc/elements/1.1/"
   xmlns:cc="http://creativecommons.org/ns#"
   xmlns:rdf="http://www.w3.org/1999/02/22-rdf-syntax-ns#"
   xmlns:svg="http://www.w3.org/2000/svg"
   xmlns="http://www.w3.org/2000/svg"
   xmlns:sodipodi="http://sodipodi.sourceforge.net/DTD/sodipodi-0.dtd"
   xmlns:inkscape="http://www.inkscape.org/namespaces/inkscape"
   width="300"
   height="300"
   viewBox="0 0 79.374998 79.375002"
   version="1.1"
   id="svg985"
   sodipodi:docname="flame-drawing4.svg"
   inkscape:version="1.0.1 (3bc2e813f5, 2020-09-07)">
  <defs
     id="defs979" />
  <sodipodi:namedview
     id="base"
     pagecolor="#ffffff"
     bordercolor="#666666"
     borderopacity="1.0"
     inkscape:pageopacity="0.0"
     inkscape:pageshadow="2"
     inkscape:zoom="1.979899"
     inkscape:cx="93.426313"
     inkscape:cy="162.54029"
     inkscape:document-units="mm"
     inkscape:current-layer="layer1"
     inkscape:document-rotation="0"
     showgrid="false"
     units="px"
     inkscape:window-width="1920"
     inkscape:window-height="1001"
     inkscape:window-x="-9"
     inkscape:window-y="-9"
     inkscape:window-maximized="1" />
  <metadata
     id="metadata982">
    <rdf:RDF>
      <cc:Work
         rdf:about="">
        <dc:format>image/svg+xml</dc:format>
        <dc:type
           rdf:resource="http://purl.org/dc/dcmitype/StillImage" />
        <dc:title></dc:title>
      </cc:Work>
    </rdf:RDF>
  </metadata>
  <g
     inkscape:label="Layer 1"
     inkscape:groupmode="layer"
     id="layer1">
    <path
       style="fill:#000000;fill-opacity:1;stroke:#020000;stroke-width:0.368497;stroke-linecap:butt;stroke-linejoin:miter;stroke-miterlimit:4;stroke-dasharray:none;stroke-opacity:1"
       d="M 39.990551,0.57013049 C 45.953054,8.3255673 26.757501,15.430263 26.754169,23.691933 26.748869,36.599375 67.887491,25.848349 50.489898,9.3159165 60.097758,11.647371 62.052697,23.558335 59.974133,28.241414 56.295367,36.5298 38.908826,48.568459 52.613668,51.574695 65.267668,54.350423 58.337986,46.271257 65.136606,38.116266 62.468755,53.439065 104.58433,69.303507 54.575772,78.59955 66.579992,63.642906 17.995412,64.667393 32.789056,79.143691 -23.521185,73.929331 12.27147,44.965879 8.0780657,35.608335 12.292149,38.726734 7.7005684,58.272107 16.062956,57.826921 37.105997,56.706659 15.686968,39.994812 15.350833,28.350237 14.894387,12.537883 40.34363,9.9163747 39.990551,0.57013049 Z"
       id="path2135"
       sodipodi:nodetypes="cscssccccssc" />
  </g>
</svg>
