<?xml version="1.0" encoding="UTF-8" standalone="no"?>
<svg
   xmlns:dc="http://purl.org/dc/elements/1.1/"
   xmlns:cc="http://creativecommons.org/ns#"
   xmlns:rdf="http://www.w3.org/1999/02/22-rdf-syntax-ns#"
   xmlns:svg="http://www.w3.org/2000/svg"
   xmlns="http://www.w3.org/2000/svg"
   xmlns:sodipodi="http://sodipodi.sourceforge.net/DTD/sodipodi-0.dtd"
   xmlns:inkscape="http://www.inkscape.org/namespaces/inkscape"
   width="300"
   height="300"
   viewBox="0 0 79.374999 79.374999"
   version="1.1"
   id="svg8"
   inkscape:version="1.0.1 (3bc2e813f5, 2020-09-07)"
   sodipodi:docname="globe-drawing.svg"
   inkscape:export-filename="C:\Users\shannon.bivins\Pictures\globe-drawing.png"
   inkscape:export-xdpi="96"
   inkscape:export-ydpi="96">
  <defs
     id="defs2">
    <inkscape:path-effect
       effect="simplify"
       id="path-effect937"
       is_visible="true"
       lpeversion="1"
       steps="1"
       threshold="0.00961538"
       smooth_angles="360"
       helper_size="0"
       simplify_individual_paths="false"
       simplify_just_coalesce="false" />
    <inkscape:path-effect
       effect="simplify"
       id="path-effect933"
       is_visible="true"
       lpeversion="1"
       steps="1"
       threshold="0.00961538"
       smooth_angles="360"
       helper_size="0"
       simplify_individual_paths="false"
       simplify_just_coalesce="false" />
    <inkscape:path-effect
       effect="simplify"
       id="path-effect929"
       is_visible="true"
       lpeversion="1"
       steps="1"
       threshold="0.00961538"
       smooth_angles="360"
       helper_size="0"
       simplify_individual_paths="false"
       simplify_just_coalesce="false" />
  </defs>
  <sodipodi:namedview
     id="base"
     pagecolor="#ffffff"
     bordercolor="#666666"
     borderopacity="1.0"
     inkscape:pageopacity="0.0"
     inkscape:pageshadow="2"
     inkscape:zoom="1"
     inkscape:cx="135.63096"
     inkscape:cy="90.996073"
     inkscape:document-units="mm"
     inkscape:current-layer="layer1"
     inkscape:document-rotation="0"
     showgrid="false"
     inkscape:window-width="1920"
     inkscape:window-height="1001"
     inkscape:window-x="-9"
     inkscape:window-y="-9"
     inkscape:window-maximized="1"
     units="px" />
  <metadata
     id="metadata5">
    <rdf:RDF>
      <cc:Work
         rdf:about="">
        <dc:format>image/svg+xml</dc:format>
        <dc:type
           rdf:resource="http://purl.org/dc/dcmitype/StillImage" />
        <dc:title></dc:title>
      </cc:Work>
    </rdf:RDF>
  </metadata>
  <g
     inkscape:label="Layer 1"
     inkscape:groupmode="layer"
     id="layer1">
    <path
       style="fill:#000000;fill-opacity:1;stroke:#000000;stroke-width:0.0235748;stroke-linecap:butt;stroke-linejoin:miter;stroke-miterlimit:4;stroke-dasharray:none;stroke-opacity:1"
       d="m 17.267213,16.36774 c 1.392724,0.600955 2.302462,1.671393 2.734495,2.500021 6.410278,-0.25727 13.007469,0.229648 18.885141,1.547777 1.291119,-1.505722 3.383002,-2.574051 5.895021,-1.928334 C 48.655078,13.752331 53.513074,9.0535966 59.030701,5.0405613 45.406695,-2.4462526 30.003036,-1.1742439 18.371688,6.2152516 17.869981,9.4551987 17.474238,12.845161 17.267213,16.36774 Z"
       id="path939"
       sodipodi:nodetypes="ccccccc" />
    <path
       style="fill:#000000;fill-opacity:1;stroke:#000000;stroke-width:0.0235748;stroke-linecap:butt;stroke-linejoin:miter;stroke-miterlimit:4;stroke-dasharray:none;stroke-opacity:1"
       d="m 4.8177069,20.755916 c 1.6186557,-0.346804 3.086916,-0.589507 4.6760039,-0.846331 0.5462152,-1.564809 1.5875622,-2.815128 3.0714012,-3.470908 0.05873,-1.955178 0.322051,-4.166232 0.501841,-6.160436 -3.009795,2.647267 -6.0467243,6.375517 -8.2492461,10.477675"
       id="path941"
       sodipodi:nodetypes="ccccc" />
    <path
       style="fill:#000000;fill-opacity:1;stroke:#000000;stroke-width:0.0235748;stroke-linecap:butt;stroke-linejoin:miter;stroke-miterlimit:4;stroke-dasharray:none;stroke-opacity:1"
       d="m 2.3954502,26.15438 c 2.4751665,-0.618784 5.1118379,-1.127256 7.6184938,-1.533683 0.872644,1.403024 1.621573,1.835421 2.52432,2.312312 0.774321,13.320381 4.012599,24.304561 8.75248,33.784934 -0.26874,0.304785 -0.485051,0.713205 -0.63603,1.044388 C 15.140248,61.017205 9.1804857,59.284579 4.2582096,57.539487 -0.49097938,48.307503 -1.4634652,36.630956 2.3954502,26.15438 Z"
       id="path949"
       sodipodi:nodetypes="ccccccc" />
    <path
       style="fill:#000000;fill-opacity:1;stroke:#000000;stroke-width:0.0235748;stroke-linecap:butt;stroke-linejoin:miter;stroke-miterlimit:4;stroke-dasharray:none;stroke-opacity:1"
       d="m 20.399868,23.591285 c 5.880057,-0.253481 12.313133,0.307207 17.267689,1.392587 0.08671,0.850227 0.45521,1.53094 0.802106,2.184379 C 32.539966,36.52606 28.323034,46.359875 25.004761,57.583169 20.64053,48.814957 17.855654,37.645711 17.26268,26.998477 c 1.37508,-0.605852 2.637266,-1.818836 3.137188,-3.407192 z"
       id="path951"
       sodipodi:nodetypes="cccccc" />
    <path
       style="fill:#000000;fill-opacity:1;stroke:#000000;stroke-width:0.0235748;stroke-linecap:butt;stroke-linejoin:miter;stroke-miterlimit:4;stroke-dasharray:none;stroke-opacity:1"
       d="m 8.2014329,63.818661 c 3.8441781,1.155155 8.3217121,2.153583 12.3422561,2.706077 0.310376,0.845803 1.000056,1.661045 1.678604,2.245629 -0.363642,1.887771 -0.778653,4.04912 -1.109343,5.975514 -4.041028,-2.168766 -8.726239,-5.450956 -12.9115171,-10.92722 z"
       id="path953"
       sodipodi:nodetypes="ccccc" />
    <path
       style="fill:#000000;fill-opacity:1;stroke:#000000;stroke-width:0.0235748;stroke-linecap:butt;stroke-linejoin:miter;stroke-miterlimit:4;stroke-dasharray:none;stroke-opacity:1"
       d="m 48.460269,21.431606 c 0.342267,0.634101 0.531328,1.464722 0.625401,2.149206 9.00667,3.734567 15.626,9.203915 20.553381,14.889943 1.173735,-0.315508 2.601908,-0.263347 3.666857,0.1993 1.737836,-2.442123 3.529847,-5.476496 4.945691,-8.264922 C 76.493497,22.81137 71.742209,14.076356 63.317798,7.8086929 55.683741,12.976052 50.594013,18.837315 48.460269,21.431606 Z"
       id="path955"
       sodipodi:nodetypes="ccccccc" />
    <path
       style="fill:#000000;fill-opacity:1;stroke:#000000;stroke-width:0.0235748;stroke-linecap:butt;stroke-linejoin:miter;stroke-miterlimit:4;stroke-dasharray:none;stroke-opacity:1"
       d="m 25.558415,76.755419 c 0.314362,-2.177766 0.802629,-4.609272 1.196415,-6.671257 1.861369,2.739141 4.416885,6.121909 6.90346,8.818067 -2.655816,-0.382781 -5.60072,-1.148676 -8.099875,-2.14681 z"
       id="path957"
       sodipodi:nodetypes="cccc" />
    <path
       style="fill:#000000;fill-opacity:1;stroke:#000000;stroke-width:0.0235748;stroke-linecap:butt;stroke-linejoin:miter;stroke-miterlimit:4;stroke-dasharray:none;stroke-opacity:1"
       d="m 42.38299,29.792873 c 2.129365,0.366312 4.011123,-0.547239 5.154181,-1.736522 6.225909,2.67614 12.403701,6.494844 18.487012,13.458287 -1.092872,2.332723 -0.458995,4.420821 0.299837,5.625761 C 56.987946,56.604016 45.428834,62.100896 31.313575,62.452025 30.947828,61.334501 30.215694,60.35483 29.300049,59.641579 32.773288,47.826331 36.834161,38.511666 42.38299,29.792873 Z"
       id="path959"
       sodipodi:nodetypes="ccccccc" />
    <path
       style="fill:#000000;fill-opacity:1;stroke:#000000;stroke-width:0.0235748;stroke-linecap:butt;stroke-linejoin:miter;stroke-miterlimit:4;stroke-dasharray:none;stroke-opacity:1"
       d="m 79.32091,38.104381 c 0.227707,4.683311 -0.491031,8.906798 -1.501965,12.49715 -0.575456,-1.062806 -1.236696,-2.227578 -1.870626,-3.310134 1.056091,-1.458653 1.25298,-3.455322 0.672843,-5.150389 0.843185,-1.21561 1.882104,-2.704361 2.699748,-4.036627 z"
       id="path961"
       sodipodi:nodetypes="ccccc" />
    <path
       style="fill:#000000;fill-opacity:1;stroke:#000000;stroke-width:0.0235748;stroke-linecap:butt;stroke-linejoin:miter;stroke-miterlimit:4;stroke-dasharray:none;stroke-opacity:1"
       d="m 30.800086,67.190223 c 13.721722,-0.158782 27.680052,-5.052769 39.544847,-17.425747 0.54573,0.123349 1.100787,0.07131 1.610048,0.02091 1.254118,2.141976 2.61551,4.68769 3.586715,6.901406 C 69.707138,68.866451 57.473709,78.72981 40.71062,79.363089 36.609688,75.51149 33.462077,71.539267 30.651216,67.428753 c 0.02701,-0.03914 0.135348,-0.215403 0.14887,-0.238521 z"
       id="path963"
       sodipodi:nodetypes="ccccccc" />
  </g>
</svg>
